<?xml version="1.0" encoding="UTF-8"?>
<svg id="Capa_1" data-name="Capa 1" xmlns="http://www.w3.org/2000/svg" viewBox="0 0 365.26 119.13">
  <defs>
    <style>
      .cls-1 {
        fill: #335199;
      }

      .cls-1, .cls-2, .cls-3 {
        stroke-width: 0px;
      }

      .cls-2 {
        fill: #545353;
      }

      .cls-3 {
        fill: #e2273a;
      }
    </style>
  </defs>
  <g>
    <path class="cls-1" d="m155.53,89.02V2.84h23.21v86.19h-23.21Z"/>
    <path class="cls-1" d="m233.39,89.02h-38.54V2.84h38.54c6,0,11.62,1.13,16.88,3.39,5.26,2.26,9.85,5.33,13.77,9.22,3.92,3.89,7.01,8.46,9.27,13.72,2.26,5.26,3.39,10.85,3.39,16.77s-1.13,11.51-3.39,16.77c-2.26,5.26-5.35,9.83-9.27,13.72-3.93,3.89-8.52,6.96-13.77,9.22-5.26,2.26-10.88,3.39-16.88,3.39Zm-2.67-65.2h-13.22v44.2h13.22c3.11,0,6.02-.57,8.72-1.72,2.7-1.15,5.05-2.72,7.05-4.72,2-2,3.57-4.35,4.72-7.05,1.15-2.7,1.72-5.57,1.72-8.61s-.57-5.9-1.72-8.61c-1.15-2.7-2.72-5.05-4.72-7.05-2-2-4.35-3.57-7.05-4.72-2.7-1.15-5.61-1.72-8.72-1.72Z"/>
    <path class="cls-1" d="m337.79,89.02l-14.99-26.66h-14.55l.11,26.66h-23.77V2.84h43.21c2.07,0,4.18.39,6.33,1.17,2.15.78,4.22,1.82,6.22,3.11,2,1.3,3.85,2.76,5.55,4.39,1.7,1.63,3.15,3.3,4.33,5,1.48,2.15,2.61,4.65,3.39,7.5.78,2.85,1.17,5.57,1.17,8.16,0,4.3-1,8.29-3,12-2,3.7-4.78,6.81-8.33,9.33l20.21,35.54h-25.88Zm-16.77-66.97h-13.44v18.55h13.44c1.33,0,2.59-.24,3.78-.72,1.18-.48,2.22-1.14,3.11-1.99s1.59-1.82,2.11-2.93c.52-1.1.78-2.32.78-3.64s-.26-2.54-.78-3.64c-.52-1.1-1.22-2.08-2.11-2.93-.89-.85-1.93-1.51-3.11-1.99-1.19-.48-2.44-.72-3.78-.72Z"/>
  </g>
  <g>
    <rect class="cls-1" x="50.37" y="44.25" width="28.7" height="51.31" rx="2.54" ry="2.54"/>
    <rect class="cls-1" x="28.15" y="63.26" width="16.16" height="32.26" rx="2.54" ry="2.54"/>
    <rect class="cls-1" x="85.15" y="63.29" width="16.16" height="32.27" rx="2.54" ry="2.54"/>
    <path class="cls-1" d="m55.94,30.79c-.03-4.81,3.87-8.74,8.72-8.78,4.83-.04,8.83,3.86,8.85,8.65.03,4.8-3.87,8.72-8.73,8.78-4.82.06-8.82-3.86-8.85-8.66Z"/>
    <path class="cls-1" d="m99.9,51.7c0,4.16-3.35,7.46-7.53,7.44-4.15-.02-7.55-3.43-7.5-7.52.05-4.05,3.42-7.36,7.51-7.38,4.17-.02,7.53,3.31,7.52,7.46Z"/>
    <path class="cls-1" d="m30.02,51.78c-.04-4.15,3.29-7.51,7.46-7.53,4.13-.03,7.58,3.36,7.59,7.45,0,4.1-3.41,7.46-7.57,7.45-4.12-.01-7.44-3.27-7.48-7.36Z"/>
    <path class="cls-3" d="m123.41,118.21H7.4c-4.09,0-7.4-3.31-7.4-7.4V7.4C0,3.31,3.31,0,7.4,0h116.01c4.09,0,7.4,3.31,7.4,7.4v103.41c0,4.09-3.31,7.4-7.4,7.4Zm-108.61-14.8h101.21V14.8H14.8v88.6Z"/>
  </g>
  <g>
    <path class="cls-2" d="m152.98,111.18c0-4.84,3.68-7.95,8.04-7.95,2.2,0,4.75.78,6.34,3.49l-2.48,1.72c-.89-1.31-2.27-1.94-3.77-1.94-2.53,0-4.58,1.79-4.58,4.69s2.09,4.69,4.6,4.69c1.57,0,2.85-.63,3.75-1.94l2.48,1.72c-1.59,2.7-4.16,3.49-6.36,3.49-4.36,0-8.02-3.12-8.02-7.95Z"/>
    <path class="cls-2" d="m174.86,111.18c0-4.73,3.64-7.95,8.02-7.95s8.02,3.23,8.02,7.95-3.66,7.95-8.02,7.95-8.02-3.23-8.02-7.95Zm8.02,4.69c2.44,0,4.47-1.83,4.47-4.69s-2.03-4.69-4.47-4.69-4.47,1.83-4.47,4.69,2.03,4.69,4.47,4.69Z"/>
    <path class="cls-2" d="m199.26,103.44h3.44l6.47,9.83h.11v-9.83h3.44v15.47h-3.44l-6.47-9.83h-.11v9.83h-3.44v-15.47Z"/>
    <path class="cls-2" d="m220.77,115.25l2.79-1.29c.44,1.05,1.26,2.05,2.72,2.05,1.02,0,1.96-.5,1.96-1.7,0-.92-.5-1.35-1.98-1.94l-.96-.37c-2.07-.83-3.97-1.96-3.97-4.47,0-2.68,2.24-4.31,4.93-4.31s4.36,1.66,5.1,3.29l-2.55,1.44c-.68-1.18-1.46-1.68-2.42-1.68s-1.66.44-1.66,1.31c0,.68.39,1.2,2,1.85l1.05.41c2.79,1.11,4.03,2.38,4.03,4.51,0,3.23-2.88,4.77-5.49,4.77s-4.97-1.61-5.56-3.88Z"/>
    <path class="cls-2" d="m239.86,113.05v-9.61h3.44v9.63c0,2.31,1.42,2.83,2.53,2.83s2.53-.52,2.53-2.83v-9.63h3.44v9.61c0,3.97-2.68,6.08-5.97,6.08s-5.97-2.11-5.97-6.08Z"/>
    <path class="cls-2" d="m260.39,103.44h3.44v12.31h5.75v3.16h-9.2v-15.47Z"/>
    <path class="cls-2" d="m279.02,106.6h-3.57v-3.16h10.59v3.16h-3.57v12.31h-3.44v-12.31Z"/>
    <path class="cls-2" d="m292.77,111.18c0-4.73,3.64-7.95,8.02-7.95s8.02,3.23,8.02,7.95-3.66,7.95-8.02,7.95-8.02-3.23-8.02-7.95Zm8.02,4.69c2.44,0,4.47-1.83,4.47-4.69s-2.03-4.69-4.47-4.69-4.47,1.83-4.47,4.69,2.03,4.69,4.47,4.69Z"/>
    <path class="cls-2" d="m322.5,113.92h-1.87v4.99h-3.44v-15.47h5.62c3.29,0,5.56,2.07,5.56,5.36,0,2.18-1.02,3.73-2.7,4.53l3.53,5.58h-3.64l-3.05-4.99Zm-.04-2.94c1.39,0,2.42-.52,2.42-2.18s-1.02-2.2-2.42-2.2h-1.83v4.38h1.83Z"/>
    <path class="cls-2" d="m337.34,103.44h8.96v3.16h-5.51v2.96h4.62v3.12h-4.62v3.07h5.71v3.16h-9.15v-15.47Z"/>
    <path class="cls-2" d="m354.21,115.25l2.79-1.29c.44,1.05,1.26,2.05,2.72,2.05,1.02,0,1.96-.5,1.96-1.7,0-.92-.5-1.35-1.98-1.94l-.96-.37c-2.07-.83-3.97-1.96-3.97-4.47,0-2.68,2.24-4.31,4.93-4.31s4.36,1.66,5.1,3.29l-2.55,1.44c-.68-1.18-1.46-1.68-2.42-1.68s-1.66.44-1.66,1.31c0,.68.39,1.2,2,1.85l1.05.41c2.79,1.11,4.03,2.38,4.03,4.51,0,3.23-2.88,4.77-5.49,4.77s-4.97-1.61-5.56-3.88Z"/>
  </g>
</svg>