<?xml version="1.0" encoding="utf-8"?>
<!-- Generator: Adobe Illustrator 28.0.0, SVG Export Plug-In . SVG Version: 6.00 Build 0)  -->
<svg version="1.1" id="Capa_1" xmlns="http://www.w3.org/2000/svg" xmlns:xlink="http://www.w3.org/1999/xlink" x="0px" y="0px"
	 viewBox="0 0 300 100" style="enable-background:new 0 0 300 100;" xml:space="preserve">
<style type="text/css">
	.st0{fill:#335199;}
	.st1{fill:#E2273A;}
	.st2{fill:#545353;}
</style>
<g>
	<g>
		<path class="st0" d="M125.69,70.92V11.23h16.07v59.68H125.69z"/>
		<path class="st0" d="M179.6,70.92h-26.69V11.23h26.69c4.15,0,8.05,0.78,11.69,2.35c3.64,1.56,6.82,3.69,9.54,6.38
			c2.72,2.69,4.86,5.86,6.42,9.5c1.56,3.64,2.35,7.51,2.35,11.61c0,4.1-0.78,7.97-2.35,11.61c-1.56,3.64-3.7,6.81-6.42,9.5
			c-2.72,2.69-5.9,4.82-9.54,6.38C187.65,70.13,183.76,70.92,179.6,70.92z M177.76,25.77h-9.15v30.61h9.15
			c2.15,0,4.17-0.4,6.04-1.19c1.87-0.79,3.5-1.88,4.88-3.27c1.38-1.38,2.47-3.01,3.27-4.88c0.79-1.87,1.19-3.86,1.19-5.96
			c0-2.1-0.4-4.09-1.19-5.96c-0.8-1.87-1.88-3.5-3.27-4.88c-1.38-1.38-3.01-2.47-4.88-3.27C181.92,26.17,179.91,25.77,177.76,25.77z
			"/>
		<path class="st0" d="M251.9,70.92l-10.38-18.46h-10.08l0.08,18.46h-16.46V11.23h29.92c1.43,0,2.9,0.27,4.38,0.81
			c1.49,0.54,2.92,1.26,4.31,2.15c1.38,0.9,2.67,1.91,3.85,3.04c1.18,1.13,2.18,2.28,3,3.46c1.03,1.49,1.81,3.22,2.35,5.19
			c0.54,1.97,0.81,3.86,0.81,5.65c0,2.97-0.69,5.74-2.08,8.31c-1.38,2.56-3.31,4.72-5.77,6.46l14,24.61H251.9z M240.28,24.54h-9.31
			v12.84h9.31c0.92,0,1.79-0.16,2.61-0.5c0.82-0.33,1.54-0.79,2.15-1.38c0.62-0.59,1.1-1.26,1.46-2.03
			c0.36-0.76,0.54-1.61,0.54-2.52c0-0.92-0.18-1.76-0.54-2.52c-0.36-0.76-0.85-1.44-1.46-2.03c-0.62-0.59-1.33-1.04-2.15-1.38
			C242.08,24.71,241.21,24.54,240.28,24.54z"/>
	</g>
	<g>
		<g>
			<g>
				<path class="st0" d="M70.99,75.44H54.63c-0.97,0-1.76-0.79-1.76-1.76V41.67c0-0.97,0.79-1.76,1.76-1.76h16.36
					c0.97,0,1.76,0.79,1.76,1.76v32.02C72.75,74.66,71.96,75.44,70.99,75.44z"/>
			</g>
		</g>
		<g>
			<g>
				<path class="st0" d="M39.25,53.08h7.66c0.97,0,1.76,0.79,1.76,1.76v18.82c0,0.97-0.79,1.76-1.76,1.76h-7.66
					c-0.97,0-1.76-0.79-1.76-1.76V54.84C37.48,53.87,38.27,53.08,39.25,53.08z"/>
			</g>
		</g>
		<g>
			<g>
				<path class="st0" d="M86.38,75.44h-7.66c-0.97,0-1.76-0.79-1.76-1.76V54.86c0-0.97,0.79-1.76,1.76-1.76h7.66
					c0.97,0,1.76,0.79,1.76,1.76v18.82C88.14,74.65,87.35,75.44,86.38,75.44z"/>
			</g>
		</g>
		<g>
			<g>
				<path class="st0" d="M56.73,30.59c-0.02-3.33,2.68-6.05,6.04-6.08c3.34-0.03,6.11,2.68,6.13,5.99c0.02,3.33-2.68,6.04-6.04,6.08
					C59.52,36.63,56.75,33.92,56.73,30.59z"/>
			</g>
		</g>
		<g>
			<g>
				<path class="st0" d="M87.17,45.07c0,2.88-2.32,5.17-5.22,5.15c-2.88-0.02-5.23-2.38-5.19-5.2c0.04-2.8,2.37-5.1,5.2-5.11
					C84.84,39.9,87.17,42.2,87.17,45.07z"/>
			</g>
		</g>
		<g>
			<g>
				<path class="st0" d="M38.78,45.13c-0.03-2.87,2.28-5.2,5.17-5.22c2.86-0.02,5.25,2.32,5.25,5.16c0,2.84-2.36,5.17-5.24,5.16
					C41.1,50.22,38.8,47.96,38.78,45.13z"/>
			</g>
		</g>
		<g>
			<g>
				<path class="st1" d="M103.45,91.13H23.12c-2.83,0-5.13-2.29-5.13-5.13V14.4c0-2.83,2.29-5.13,5.13-5.13h80.33
					c2.83,0,5.13,2.29,5.13,5.13V86C108.57,88.83,106.28,91.13,103.45,91.13z M28.24,80.87h70.08V19.52H28.24V80.87z"/>
			</g>
		</g>
	</g>
	<g>
		<path class="st2" d="M123.92,86.26c0-3.35,2.55-5.51,5.57-5.51c1.52,0,3.29,0.54,4.39,2.41l-1.72,1.19
			c-0.62-0.91-1.57-1.34-2.61-1.34c-1.75,0-3.17,1.24-3.17,3.24c0,2.04,1.45,3.24,3.18,3.24c1.09,0,1.98-0.44,2.6-1.34l1.72,1.19
			c-1.1,1.87-2.88,2.41-4.41,2.41C126.46,91.76,123.92,89.61,123.92,86.26z"/>
		<path class="st2" d="M139.07,86.26c0-3.27,2.52-5.51,5.55-5.51c3.02,0,5.55,2.23,5.55,5.51s-2.54,5.51-5.55,5.51
			C141.59,91.76,139.07,89.53,139.07,86.26z M144.63,89.5c1.69,0,3.09-1.27,3.09-3.24c0-1.98-1.4-3.24-3.09-3.24
			s-3.09,1.27-3.09,3.24C141.53,88.23,142.94,89.5,144.63,89.5z"/>
		<path class="st2" d="M155.97,80.9h2.38l4.48,6.81h0.08V80.9h2.38v10.71h-2.38l-4.48-6.81h-0.08v6.81h-2.38V80.9z"/>
		<path class="st2" d="M170.87,89.08l1.93-0.89c0.3,0.72,0.88,1.42,1.89,1.42c0.71,0,1.36-0.35,1.36-1.18
			c0-0.63-0.35-0.94-1.37-1.34l-0.66-0.26c-1.43-0.57-2.75-1.36-2.75-3.09c0-1.86,1.55-2.99,3.41-2.99c1.89,0,3.02,1.15,3.53,2.28
			l-1.77,1c-0.47-0.81-1.01-1.16-1.68-1.16c-0.65,0-1.15,0.3-1.15,0.91c0,0.47,0.27,0.83,1.39,1.28l0.72,0.29
			c1.93,0.77,2.79,1.64,2.79,3.12c0,2.23-1.99,3.3-3.8,3.3C172.83,91.76,171.27,90.65,170.87,89.08z"/>
		<path class="st2" d="M184.09,87.55V80.9h2.38v6.67c0,1.6,0.98,1.96,1.75,1.96c0.77,0,1.75-0.36,1.75-1.96V80.9h2.38v6.65
			c0,2.75-1.86,4.21-4.13,4.21C185.93,91.76,184.09,90.3,184.09,87.55z"/>
		<path class="st2" d="M198.3,80.9h2.38v8.53h3.98v2.19h-6.37V80.9z"/>
		<path class="st2" d="M211.2,83.09h-2.47V80.9h7.33v2.19h-2.47v8.53h-2.38V83.09z"/>
		<path class="st2" d="M220.73,86.26c0-3.27,2.52-5.51,5.55-5.51c3.02,0,5.55,2.23,5.55,5.51s-2.54,5.51-5.55,5.51
			C223.25,91.76,220.73,89.53,220.73,86.26z M226.28,89.5c1.69,0,3.09-1.27,3.09-3.24c0-1.98-1.4-3.24-3.09-3.24
			c-1.69,0-3.09,1.27-3.09,3.24C223.19,88.23,224.59,89.5,226.28,89.5z"/>
		<path class="st2" d="M241.31,88.16h-1.3v3.46h-2.38V80.9h3.89c2.28,0,3.85,1.43,3.85,3.71c0,1.51-0.71,2.58-1.87,3.14l2.44,3.86
			h-2.52L241.31,88.16z M241.28,86.12c0.97,0,1.68-0.36,1.68-1.51s-0.71-1.52-1.68-1.52h-1.27v3.03H241.28z"/>
		<path class="st2" d="M251.58,80.9h6.2v2.19h-3.82v2.05h3.2v2.16h-3.2v2.13h3.95v2.19h-6.34V80.9z"/>
		<path class="st2" d="M263.26,89.08l1.93-0.89c0.3,0.72,0.88,1.42,1.89,1.42c0.71,0,1.36-0.35,1.36-1.18
			c0-0.63-0.35-0.94-1.37-1.34l-0.66-0.26c-1.43-0.57-2.75-1.36-2.75-3.09c0-1.86,1.55-2.99,3.41-2.99c1.89,0,3.02,1.15,3.53,2.28
			l-1.77,1c-0.47-0.81-1.01-1.16-1.68-1.16c-0.65,0-1.15,0.3-1.15,0.91c0,0.47,0.27,0.83,1.39,1.28l0.72,0.29
			c1.93,0.77,2.79,1.64,2.79,3.12c0,2.23-1.99,3.3-3.8,3.3C265.23,91.76,263.67,90.65,263.26,89.08z"/>
	</g>
</g>
</svg>
